<svg version="1" xmlns="http://www.w3.org/2000/svg" width="1365.333" height="1365.333" viewBox="0 0 1024.000000 1024.000000"><path d="M556.4 170.4c-4.3 1.9-6.8 5.4-9.2 13.3-7.3 23.5-181.4 627.6-181.9 631-.8 5.9 1.1 9.9 6.1 12.7 6.1 3.5 85.9 26.8 92.3 27 6.6.1 9.8-2.1 13.6-9.5 1.7-3.3 38.4-129 93.1-318.4 49.7-172.2 90.7-314.5 91.1-316.3 1.4-6.8-1.5-11.9-8.4-14.9-5.9-2.5-84.4-25.3-89.1-25.8-2.8-.3-5.7 0-7.6.9zM288.2 316.8c-3.3 1.7-38.7 34.3-101.4 93.3-53 49.8-97.5 92-99 93.8-3.9 4.6-3.9 11.6 0 16.2 4.7 5.7 195.3 184.3 199.1 186.6 4.4 2.8 10.5 3 14.6.5 4-2.5 65.7-68.5 67.2-72 1.6-3.5 1.6-7.4.1-10.8-.7-1.4-29-27.2-63-57.1-34-30-61.8-54.9-61.8-55.3 0-.4 27.8-25.3 61.8-55.3 34-29.9 62.3-55.7 63-57.1 1.5-3.4 1.5-7.3-.1-10.8-1.1-2.4-33.3-37.7-56.7-62.1-12.2-12.7-15.9-14.3-23.8-9.9zM729.3 315c-1.7.4-4.3 1.6-5.7 2.8-3 2.3-56.6 59.2-62.3 66-2.9 3.5-3.7 5.4-4.1 9.6-.4 4.8-.1 5.6 2.8 8.9 1.7 2 30.1 27.4 63.1 56.4 32.9 29 59.9 53 59.9 53.3 0 .3-27 24.3-59.9 53.3-33 29-61.4 54.4-63.1 56.4-2.9 3.3-3.2 4.1-2.8 8.8.3 3.4 1.2 6.2 2.7 8.1 3.4 4.4 56.1 60.2 62.1 65.8 5.1 4.7 5.3 4.8 10.5 4.4 4.2-.4 6.4-1.2 9.8-3.9 8.7-6.8 197.4-185 198.5-187.5 1.5-3.2 1.5-7.6 0-10.8-.6-1.4-22.1-22.3-47.7-46.4C731.8 308.5 740 316 734.5 314.7c-1.1-.3-3.4-.1-5.2.3z"/></svg>